<svg xmlns="http://www.w3.org/2000/svg" xml:space="preserve" width="1.70666in" height="1.70666in" version="1.1" style="shape-rendering:geometricPrecision; text-rendering:geometricPrecision; image-rendering:optimizeQuality; fill-rule:evenodd; clip-rule:evenodd" viewBox="0 0 1706.66 1706.66" xmlns:xlink="http://www.w3.org/1999/xlink" xmlns:xodm="http://www.corel.com/coreldraw/odm/2003">
 <defs>
  <style type="text/css">
   
    .fil0 {fill:url(#id0)}
   
  </style>
  <linearGradient id="id0" gradientUnits="userSpaceOnUse" x1="46.13" y1="853.34" x2="1660.54" y2="853.34">
   <stop offset="0" style="stop-opacity: 1; stop-color: rgb(62, 181, 155);" id="id_102"></stop>
   <stop offset="1" style="stop-opacity: 1; stop-color: rgb(52, 144, 201);" id="id_103"></stop>
  </linearGradient>
 </defs>
 <g id="Layer_x0020_1">
  <metadata id="CorelCorpID_0Corel-Layer"></metadata>
  <path class="fil0" d="M833.33 1614.43l0 -401.08c0,-26.33 40,-26.32 40,0l0 401.08 104.37 0c31.38,0 56.91,-25.53 56.91,-56.9l0 -664.14c0,-26.33 40,-26.32 40,0l0 299.94 91.2 0 0 -506.74c0,-94.98 -77.26,-172.26 -172.26,-172.26l-280.4 0c-94.98,0 -172.26,77.28 -172.26,172.26l0 506.73 91.17 0 0 -299.94c0,-26.33 40,-26.32 40,0l0 664.13c0,31.37 25.53,56.9 56.92,56.9l104.37 0zm582.31 -955.91c-87.54,0 -158.78,-71.22 -158.78,-158.76 0,-87.54 71.23,-158.76 158.78,-158.76 87.54,0 158.78,71.22 158.78,158.76 0,87.54 -71.23,158.76 -158.78,158.76zm0 -277.54c-65.48,0 -118.76,53.28 -118.76,118.77 0,65.49 53.27,118.76 118.76,118.76 65.49,0 118.76,-53.28 118.76,-118.76 0,-65.49 -53.28,-118.77 -118.76,-118.77zm271.01 930.2l-86.96 0 0 260.55c0.03,45.6 -37.07,82.7 -82.67,82.7l-202.78 0c-45.59,0 -82.69,-37.1 -82.69,-82.69l0 -260.56c-122.19,0 -106.92,14.61 -106.92,-77.85l-50.04 0 0 324.19c0.02,53.45 -43.45,96.92 -96.9,96.92l-248.74 0c-53.44,0 -96.92,-43.47 -96.92,-96.92l0 -324.19 -50.02 0c0,92.44 15.26,77.85 -106.86,77.85l0 260.55c0,45.6 -37.08,82.7 -82.69,82.7l-202.76 0c-45.59,0 -82.69,-37.1 -82.69,-82.69l0 -260.56 -87.01 0c-11.04,0 -20,-8.97 -20,-20l0 -429.39c0,-97.44 79.28,-176.72 176.74,-176.72l228.57 0c30.91,0 68,12.17 95.56,28.15l0 -26.63c0,-117.04 95.22,-212.26 212.26,-212.26l280.4 0c117.06,0 212.28,95.22 212.28,212.26l0 26.63c27.56,-16 64.65,-28.17 95.57,-28.17l228.56 0c97.46,0 176.73,79.28 176.73,176.72l0 429.37c-0.01,11.05 -8.97,20.02 -20.01,20.02zm-86.96 -40l66.96 0 0 -409.39c0,-75.39 -61.33,-136.72 -136.72,-136.72l-228.56 0c-52.6,0 -77.88,24.62 -95.57,39.89l0 448.37c0.02,23.76 -26.48,20 -41.15,20l0 37.85 66.92 0 0 -240.82c0,-26.33 40,-26.32 40,0l0 541.37c0,23.53 19.14,42.67 42.68,42.67l81.4 0 0 -323.22c0,-26.33 40,-26.32 40,0l0 323.22 81.37 0c23.54,0 42.68,-19.14 42.68,-42.67l-0 -541.37c0,-26.33 40,-26.32 40,0l0 240.82zm-1124.53 0l66.86 0c0,-12.82 -0.92,-26.04 -1,-37.85 -14.11,0 -40.17,3.58 -40.17,-20l0 -448.41c-17.69,-15.28 -42.99,-39.87 -95.56,-39.87l-228.57 0.01c-75.39,0 -136.74,61.33 -136.74,136.72l0 409.37 67.01 -0.01 0 -240.79c0,-26.33 40,-26.32 40,0l0 541.37c0,23.53 19.16,42.67 42.69,42.67l81.39 0 0 -323.22c0,-26.33 40,-26.32 40,0l0 323.22 81.37 0c23.54,0 42.69,-19.14 42.69,-42.67l0 -541.37c0,-26.33 40,-26.32 40,0l0 240.82zm-184.07 -612.66c-87.54,0 -158.76,-71.22 -158.76,-158.76 0,-87.54 71.22,-158.76 158.76,-158.76 87.54,0 158.77,71.21 158.77,158.75 0,87.54 -71.22,158.78 -158.77,158.78zm0 -277.54c-65.48,0 -118.76,53.28 -118.76,118.77 0,65.49 53.28,118.76 118.76,118.76 65.49,0 118.77,-53.28 118.77,-118.76 0,-65.49 -53.28,-118.77 -118.77,-118.77zm562.23 51.7c-104.89,0 -190.24,-85.35 -190.24,-190.24 0,-104.9 85.35,-190.23 190.24,-190.23 104.89,0 190.25,85.35 190.25,190.23 0,104.89 -85.35,190.24 -190.25,190.24zm0 -340.47c-82.83,0 -150.24,67.4 -150.24,150.23 0,82.83 67.4,150.24 150.24,150.24 82.83,0 150.24,-67.4 150.24,-150.24 0,-82.85 -67.39,-150.23 -150.24,-150.23z" id="id_101"></path>
 </g>
</svg>