<svg xmlns="http://www.w3.org/2000/svg" xmlns:xlink="http://www.w3.org/1999/xlink" viewBox="0 0 64 64"><defs><style>.cls-1{fill:url(#linear-gradient);}.cls-2{fill:url(#linear-gradient-2);}.cls-3{fill:url(#linear-gradient-3);}.cls-4{fill:url(#linear-gradient-4);}.cls-5{fill:url(#linear-gradient-5);}.cls-6{fill:url(#linear-gradient-6);}.cls-7{fill:url(#linear-gradient-7);}.cls-8{fill:url(#linear-gradient-8);}.cls-9{fill:url(#linear-gradient-9);}</style><linearGradient id="linear-gradient" x1="4.8" y1="32" x2="59.2" y2="32" gradientUnits="userSpaceOnUse"><stop offset="0" stop-color="#3eb59b" id="id_110"></stop><stop offset="1" stop-color="#3490c9" id="id_111"></stop></linearGradient><linearGradient id="linear-gradient-2" x1="9.05" y1="18.36" x2="28.7" y2="18.36" xlink:href="#linear-gradient"></linearGradient><linearGradient id="linear-gradient-3" x1="35.32" y1="18.35" x2="54.95" y2="18.35" xlink:href="#linear-gradient"></linearGradient><linearGradient id="linear-gradient-4" x1="9.05" y1="26.72" x2="28.7" y2="26.72" xlink:href="#linear-gradient"></linearGradient><linearGradient id="linear-gradient-5" x1="35.32" y1="26.71" x2="54.95" y2="26.71" xlink:href="#linear-gradient"></linearGradient><linearGradient id="linear-gradient-6" x1="9.05" y1="35.09" x2="28.7" y2="35.09" xlink:href="#linear-gradient"></linearGradient><linearGradient id="linear-gradient-7" x1="35.32" y1="35.08" x2="54.95" y2="35.08" xlink:href="#linear-gradient"></linearGradient><linearGradient id="linear-gradient-8" x1="9.05" y1="43.45" x2="28.7" y2="43.45" xlink:href="#linear-gradient"></linearGradient><linearGradient id="linear-gradient-9" x1="35.32" y1="43.44" x2="54.95" y2="43.44" xlink:href="#linear-gradient"></linearGradient></defs><g id="Layer_30" data-name="Layer 30"><path class="cls-1" d="M54.77,6.68H42.51A11.53,11.53,0,0,0,32,13.51,11.53,11.53,0,0,0,21.49,6.68H9.23A4.43,4.43,0,0,0,4.8,11.1V46.16a4.44,4.44,0,0,0,4.43,4.43H19.76a9.56,9.56,0,0,1,6.87,2.93,17,17,0,0,0,4.92,3.7,1.06,1.06,0,0,0,.9,0,17,17,0,0,0,4.92-3.7,9.56,9.56,0,0,1,6.87-2.93H54.77a4.44,4.44,0,0,0,4.43-4.43V11.1A4.43,4.43,0,0,0,54.77,6.68Zm-35,41.91H9.23A2.43,2.43,0,0,1,6.8,46.16V11.1A2.43,2.43,0,0,1,9.23,8.68H21.49A9.52,9.52,0,0,1,31,18.19V54.62a16.54,16.54,0,0,1-2.92-2.48A11.57,11.57,0,0,0,19.76,48.59ZM57.2,46.16a2.43,2.43,0,0,1-2.43,2.43H44.24a11.57,11.57,0,0,0-8.32,3.55A16.54,16.54,0,0,1,33,54.62V18.19a9.52,9.52,0,0,1,9.51-9.51H54.77A2.43,2.43,0,0,1,57.2,11.1Z" id="id_101"></path><path class="cls-2" d="M21.49,16.34H10a1,1,0,0,0,0,2H21.49a9.5,9.5,0,0,1,5.62,1.84,1,1,0,0,0,.59.19,1,1,0,0,0,.8-.41,1,1,0,0,0-.21-1.4A11.48,11.48,0,0,0,21.49,16.34Z" id="id_102"></path><path class="cls-3" d="M54,16.34H42.51c-1.45-.22-8.38,1.53-7,3.62a1,1,0,0,0,1.39.22,9.5,9.5,0,0,1,5.62-1.84H54A1,1,0,0,0,54,16.34Z" id="id_103"></path><path class="cls-4" d="M21.49,24.71H10a1,1,0,0,0,0,2H21.49a9.49,9.49,0,0,1,5.62,1.83,1,1,0,0,0,.59.2,1,1,0,0,0,.59-1.81A11.41,11.41,0,0,0,21.49,24.71Z" id="id_104"></path><path class="cls-5" d="M54,24.71H42.51c-1.45-.23-8.38,1.52-7,3.62a1,1,0,0,0,1.39.21,9.49,9.49,0,0,1,5.62-1.83H54A1,1,0,0,0,54,24.71Z" id="id_105"></path><path class="cls-6" d="M21.49,33.07H10a1,1,0,0,0,0,2H21.49a9.5,9.5,0,0,1,5.62,1.84,1,1,0,0,0,.59.19,1,1,0,0,0,.8-.41,1,1,0,0,0-.21-1.4A11.48,11.48,0,0,0,21.49,33.07Z" id="id_106"></path><path class="cls-7" d="M54,33.07H42.51c-1.45-.22-8.38,1.53-7,3.62a1,1,0,0,0,1.39.22,9.5,9.5,0,0,1,5.62-1.84H54A1,1,0,0,0,54,33.07Z" id="id_107"></path><path class="cls-8" d="M21.49,41.44H10a1,1,0,0,0,0,2H21.49a9.49,9.49,0,0,1,5.62,1.83,1,1,0,0,0,.59.2,1,1,0,0,0,.59-1.81A11.41,11.41,0,0,0,21.49,41.44Z" id="id_108"></path><path class="cls-9" d="M54,41.44H42.51c-1.45-.23-8.38,1.52-7,3.62a1,1,0,0,0,1.39.21,9.49,9.49,0,0,1,5.62-1.83H54A1,1,0,0,0,54,41.44Z" id="id_109"></path></g></svg>