<svg width="512" height="512" viewBox="0 0 512 512" fill="none" xmlns="http://www.w3.org/2000/svg">
<path d="M222.644 94.0425L210.343 106.343L221.657 117.657L233.958 105.356C238.219 108.187 242.987 110.17 248 111.195V128H264V111.195C269.013 110.17 273.781 108.187 278.042 105.356L290.343 117.657L301.657 106.343L289.356 94.0425C292.187 89.7808 294.17 85.0128 295.195 80H312V64H295.195C294.17 58.9872 292.187 54.2192 289.356 49.9575L301.657 37.6567L290.343 26.3433L278.042 38.644C273.781 35.8125 269.013 33.8299 264 32.8049V16H248V32.8049C242.987 33.8299 238.219 35.8125 233.958 38.644L221.657 26.3433L210.343 37.6567L222.644 49.9575C219.813 54.2192 217.83 58.9872 216.805 64H200V80H216.805C217.83 85.0128 219.813 89.7808 222.644 94.0425V94.0425ZM256 48C260.747 48 265.387 49.4076 269.334 52.0447C273.28 54.6819 276.357 58.4302 278.173 62.8156C279.99 67.201 280.465 72.0266 279.539 76.6822C278.613 81.3377 276.327 85.6141 272.971 88.9706C269.614 92.327 265.338 94.6128 260.682 95.5388C256.027 96.4649 251.201 95.9896 246.816 94.1731C242.43 92.3566 238.682 89.2805 236.045 85.3337C233.408 81.3869 232 76.7468 232 72C232.007 65.637 234.538 59.5368 239.037 55.0375C243.537 50.5382 249.637 48.0073 256 48Z" fill="url(#paint0_linear_483_17356)" id="id_209"></path>
<path d="M472 208H312V224H472C474.121 224.002 476.154 224.846 477.654 226.346C479.154 227.846 479.998 229.879 480 232V392C479.998 394.121 479.154 396.154 477.654 397.654C476.154 399.154 474.121 399.998 472 400H40C37.879 399.998 35.8456 399.154 34.3458 397.654C32.8461 396.154 32.0024 394.121 32 392V232C32.0024 229.879 32.8461 227.846 34.3458 226.346C35.8456 224.846 37.879 224.002 40 224H200V208H40C33.637 208.007 27.5368 210.538 23.0375 215.037C18.5382 219.537 16.0073 225.637 16 232V472C16.0073 478.363 18.5382 484.463 23.0375 488.963C27.5368 493.462 33.637 495.993 40 496H472C478.363 495.993 484.463 493.462 488.963 488.963C493.462 484.463 495.993 478.363 496 472V232C495.993 225.637 493.462 219.537 488.963 215.037C484.463 210.538 478.363 208.007 472 208V208ZM208 480H40C37.879 479.998 35.8456 479.154 34.3458 477.654C32.8461 476.154 32.0024 474.121 32 472V454.624C34.5686 455.536 37.2743 456.001 40 456H208V480ZM208 440H40C37.879 439.998 35.8456 439.154 34.3458 437.654C32.8461 436.154 32.0024 434.121 32 432V414.624C34.5686 415.536 37.2743 416.001 40 416H208V440ZM288 480H224V416H288V480ZM480 472C479.998 474.121 479.154 476.154 477.654 477.654C476.154 479.154 474.121 479.998 472 480H304V456H472C474.726 456.001 477.431 455.536 480 454.624V472ZM480 432C479.998 434.121 479.154 436.154 477.654 437.654C476.154 439.154 474.121 439.998 472 440H304V416H472C474.726 416.001 477.431 415.536 480 414.624V432Z" fill="url(#paint1_linear_483_17356)" id="id_210"></path>
<path d="M144 240H72V248C71.9951 252.242 70.3079 256.309 67.3083 259.308C64.3088 262.308 60.242 263.995 56 264H48V360H57C60.9769 360.004 64.7896 361.586 67.6016 364.398C70.4137 367.21 71.9955 371.023 72 375V384H144V368H87.2031C85.8821 362.354 83.0096 357.19 78.9097 353.09C74.8098 348.99 69.6457 346.118 64 344.797V278.988C69.5301 277.547 74.5759 274.658 78.6168 270.617C82.6576 266.576 85.5473 261.53 86.9878 256H144V240Z" fill="url(#paint2_linear_483_17356)" id="id_211"></path>
<path d="M368 384H440V375C440.004 371.023 441.586 367.21 444.398 364.398C447.21 361.586 451.023 360.004 455 360H464V264H455C451.023 263.996 447.21 262.414 444.398 259.602C441.586 256.79 440.004 252.977 440 249V240H368V256H424.797C426.118 261.646 428.99 266.81 433.09 270.91C437.19 275.01 442.354 277.882 448 279.203V344.797C442.354 346.118 437.19 348.99 433.09 353.09C428.99 357.19 426.118 362.354 424.797 368H368V384Z" fill="url(#paint3_linear_483_17356)" id="id_212"></path>
<path d="M144 304H104V320H144V304Z" fill="url(#paint4_linear_483_17356)" id="id_213"></path>
<path d="M408 304H368V320H408V304Z" fill="url(#paint5_linear_483_17356)" id="id_214"></path>
<path d="M264 144H248V320H264V144Z" fill="url(#paint6_linear_483_17356)" id="id_215"></path>
<path d="M416 168C415.998 170.121 415.154 172.154 413.654 173.654C412.154 175.154 410.121 175.998 408 176H304C297.637 176.007 291.537 178.538 287.037 183.037C282.538 187.537 280.007 193.637 280 200V320H296V200C296.002 197.879 296.846 195.846 298.346 194.346C299.846 192.846 301.879 192.002 304 192H408C414.363 191.993 420.463 189.462 424.963 184.963C429.462 180.463 431.993 174.363 432 168V160H472V138.376C472.007 125.535 469.079 112.862 463.44 101.324C457.802 89.7871 449.602 79.6908 439.466 71.8062C442.141 69.5542 444.292 66.7441 445.766 63.573C447.24 60.4019 448.003 56.9467 448 53.4497V40C448 33.6348 445.471 27.5303 440.971 23.0294C436.47 18.5286 430.365 16 424 16C417.635 16 411.53 18.5286 407.029 23.0294C402.529 27.5303 400 33.6348 400 40V53.4497C399.997 56.9468 400.76 60.402 402.234 63.5732C403.709 66.7443 405.859 69.5544 408.534 71.8065C398.398 79.691 390.198 89.7873 384.56 101.324C378.921 112.862 375.993 125.535 376 138.376V160H416V168ZM416 40C416 37.8783 416.843 35.8434 418.343 34.3431C419.843 32.8429 421.878 32 424 32C426.122 32 428.157 32.8429 429.657 34.3431C431.157 35.8434 432 37.8783 432 40V53.4497C432.001 55.0156 431.542 56.5473 430.68 57.8545C429.818 59.1618 428.591 60.187 427.151 60.8027H427.152C426.15 61.2317 425.136 61.6953 424.116 62.1842L424 62.1216L423.884 62.1842C422.864 61.6953 421.85 61.2317 420.849 60.8027C419.409 60.187 418.182 59.1618 417.32 57.8546C416.458 56.5473 415.999 55.0156 416 53.4497V40ZM392 144V138.376C391.994 126.805 394.926 115.422 400.524 105.295C406.121 95.1681 414.199 86.6288 424 80.4785C433.801 86.6288 441.879 95.1681 447.476 105.295C453.074 115.422 456.006 126.805 456 138.376V144H392Z" fill="url(#paint7_linear_483_17356)" id="id_216"></path>
<path d="M39.5025 128.195L35.9205 138.94C35.1188 141.346 34.9001 143.907 35.2825 146.413C35.6648 148.919 36.6373 151.299 38.1197 153.355C39.6021 155.412 41.552 157.087 43.8087 158.242C46.0654 159.398 48.5644 160 51.0996 160H80V168C80.0073 174.363 82.5382 180.463 87.0375 184.963C91.5368 189.462 97.6371 191.993 104 192H208C210.121 192.002 212.154 192.846 213.654 194.346C215.154 195.846 215.998 197.879 216 200V320H232V200C231.993 193.637 229.462 187.537 224.963 183.037C220.463 178.538 214.363 176.007 208 176H104C101.879 175.998 99.8456 175.154 98.3458 173.654C96.8461 172.154 96.0024 170.121 96 168V160H124.9C127.436 160 129.935 159.398 132.191 158.242C134.448 157.087 136.398 155.412 137.88 153.355C139.363 151.299 140.335 148.919 140.718 146.413C141.1 143.907 140.881 141.346 140.08 138.94L136.498 128.195C146.156 102.269 146.156 73.7314 136.498 47.8052L140.08 37.0596C140.881 34.6544 141.1 32.0932 140.718 29.587C140.335 27.0807 139.363 24.7012 137.88 22.6445C136.398 20.5879 134.448 18.9129 132.191 17.7576C129.935 16.6024 127.436 16 124.9 16H51.0996C48.5644 16 46.0654 16.6024 43.8087 17.7576C41.552 18.9129 39.602 20.5879 38.1196 22.6445C36.6372 24.7012 35.6648 27.0807 35.2824 29.587C34.9001 32.0932 35.1187 34.6544 35.9204 37.0596L39.5024 47.8052C29.8437 73.7314 29.8438 102.269 39.5025 128.195V128.195ZM51.0996 32H124.901L119.484 48.25L120.572 50.9712C130.124 74.7332 130.124 101.267 120.572 125.029L119.484 127.75L124.9 144H51.0991L56.5161 127.75L55.4278 125.029C45.8765 101.267 45.8765 74.7332 55.4278 50.9712L56.5161 48.25L51.0996 32Z" fill="url(#paint8_linear_483_17356)" id="id_217"></path>
<path d="M112 96H64V112H112V96Z" fill="url(#paint9_linear_483_17356)" id="id_218"></path>
<path d="M104 64H72V80H104V64Z" fill="url(#paint10_linear_483_17356)" id="id_219"></path>
<path d="M189.237 284.998C184.824 295.927 183.162 307.772 184.396 319.493C185.63 331.214 189.722 342.453 196.314 352.223C202.905 361.994 211.795 369.997 222.202 375.529C232.608 381.062 244.214 383.955 256 383.955C267.786 383.955 279.392 381.062 289.798 375.529C300.205 369.997 309.095 361.994 315.686 352.223C322.278 342.453 326.37 331.214 327.604 319.493C328.838 307.772 327.176 295.927 322.763 284.998L307.932 291.002C311.362 299.502 312.652 308.714 311.691 317.829C310.73 326.944 307.546 335.684 302.419 343.281C297.292 350.879 290.378 357.102 282.285 361.404C274.191 365.706 265.166 367.956 256 367.956C246.834 367.956 237.809 365.706 229.715 361.404C221.622 357.102 214.708 350.879 209.581 343.281C204.454 335.684 201.27 326.944 200.309 317.829C199.348 308.714 200.638 299.502 204.068 291.002L189.237 284.998Z" fill="url(#paint11_linear_483_17356)" id="id_220"></path>
<defs>
<linearGradient id="paint0_linear_483_17356" x1="256" y1="-2.94799" x2="256" y2="508.972" gradientUnits="userSpaceOnUse">
<stop stop-color="#2AB793" id="id_221"></stop>
<stop offset="1" stop-color="#2C98B5" id="id_222"></stop>
</linearGradient>
<linearGradient id="paint1_linear_483_17356" x1="256" y1="-2.94799" x2="256" y2="508.972" gradientUnits="userSpaceOnUse">
<stop stop-color="#2AB793" id="id_223"></stop>
<stop offset="1" stop-color="#2C98B5" id="id_224"></stop>
</linearGradient>
<linearGradient id="paint2_linear_483_17356" x1="9264" y1="-184.511" x2="9264" y2="73532" gradientUnits="userSpaceOnUse">
<stop stop-color="#2AB793" id="id_225"></stop>
<stop offset="1" stop-color="#2C98B5" id="id_226"></stop>
</linearGradient>
<linearGradient id="paint3_linear_483_17356" x1="40304" y1="-184.511" x2="40304" y2="73532" gradientUnits="userSpaceOnUse">
<stop stop-color="#2AB793" id="id_227"></stop>
<stop offset="1" stop-color="#2C98B5" id="id_228"></stop>
</linearGradient>
<linearGradient id="paint4_linear_483_17356" x1="5064" y1="256.832" x2="5064" y2="8447.55" gradientUnits="userSpaceOnUse">
<stop stop-color="#2AB793" id="id_229"></stop>
<stop offset="1" stop-color="#2C98B5" id="id_230"></stop>
</linearGradient>
<linearGradient id="paint5_linear_483_17356" x1="15888" y1="256.832" x2="15888" y2="8447.55" gradientUnits="userSpaceOnUse">
<stop stop-color="#3eb59b" id="id_231"></stop>
<stop offset="1" stop-color="#3490c9" id="id_232"></stop>
</linearGradient>
<linearGradient id="paint6_linear_483_17356" x1="256" y1="-2.948" x2="256" y2="508.972" gradientUnits="userSpaceOnUse">
<stop stop-color="#2AB793" id="id_233"></stop>
<stop offset="1" stop-color="#2C98B5" id="id_234"></stop>
</linearGradient>
<linearGradient id="paint7_linear_483_17356" x1="72472" y1="-880.189" x2="72472" y2="154744" gradientUnits="userSpaceOnUse">
<stop stop-color="#2AB793" id="id_235"></stop>
<stop offset="1" stop-color="#2C98B5" id="id_236"></stop>
</linearGradient>
<linearGradient id="paint8_linear_483_17356" x1="26424" y1="-880.189" x2="26424" y2="154744" gradientUnits="userSpaceOnUse">
<stop stop-color="#2AB793" id="id_237"></stop>
<stop offset="1" stop-color="#2C98B5" id="id_238"></stop>
</linearGradient>
<linearGradient id="paint9_linear_483_17356" x1="4288" y1="48.8322" x2="4288" y2="8239.55" gradientUnits="userSpaceOnUse">
<stop stop-color="#2AB793" id="id_239"></stop>
<stop offset="1" stop-color="#2C98B5" id="id_240"></stop>
</linearGradient>
<linearGradient id="paint10_linear_483_17356" x1="2888" y1="16.8322" x2="2888" y2="8207.55" gradientUnits="userSpaceOnUse">
<stop stop-color="#2AB793" id="id_241"></stop>
<stop offset="1" stop-color="#2C98B5" id="id_242"></stop>
</linearGradient>
<linearGradient id="paint11_linear_483_17356" x1="256" y1="-2.94804" x2="256" y2="508.972" gradientUnits="userSpaceOnUse">
<stop stop-color="#2AB793" id="id_243"></stop>
<stop offset="1" stop-color="#2C98B5" id="id_244"></stop>
</linearGradient>
</defs>
</svg>